<svg width="216" height="216" viewBox="0 0 216 216" fill="none" xmlns="http://www.w3.org/2000/svg">
<path fill-rule="evenodd" clip-rule="evenodd" d="M6.80651 216C2.98783 216 -0.118532 212.887 0.00347538 209.07C3.64191 95.2504 95.2506 3.64181 209.071 0.00347521C212.887 -0.118529 216 2.98784 216 6.80652L216 36.1164C216 39.9338 212.895 43.0142 209.08 43.1642C119.054 46.706 46.7061 119.054 43.1643 209.08C43.0143 212.895 39.9339 216 36.1165 216L6.80651 216Z" fill="white"/>
<path fill-rule="evenodd" clip-rule="evenodd" d="M67.2374 216C63.42 216 60.3095 212.898 60.4763 209.084C63.9943 128.609 128.609 63.9943 209.084 60.4763C212.898 60.3095 216 63.42 216 67.2374V96.6563C216 100.474 212.897 103.546 209.087 103.777C152.499 107.21 107.21 152.499 103.777 209.087C103.546 212.897 100.474 216 96.6563 216H67.2374Z" fill="white"/>
<path d="M209.088 120.69C212.895 120.406 216 123.527 216 127.345V209.088C216 212.905 212.905 216 209.088 216H127.748C123.942 216 120.826 212.914 121.091 209.118C124.344 162.487 162.475 124.169 209.088 120.69Z" fill="white"/>
</svg>
